<?xml version="1.0" encoding="utf-8"?>
<svg viewBox="0 0 500 500" xmlns="http://www.w3.org/2000/svg">
  <g id="XMLID_2_" transform="matrix(0.95916, 0, 0, 0.932973, 4.212622, 20.160032)" style="">
    <path id="XMLID_6_" d="M384.4,39.4v78.8H177.2c-67,0-112.6,22.8-136.3,59.9s-26.8,82.7-26.8,127.6l51.2-41 c2.4-24.4,7.9-44.9,16.5-59.1c14.2-22.1,37.8-37,94.5-37h207.2v78.8l128.4-104L384.4,39.4z M497,207.2l-51.2,41 c-2.4,24.4-7.9,44.9-16.5,59.1c-14.2,22.1-37.8,37-94.5,37H128.4v-78.8L0,370.2l128.4,102.4v-78.8h206.4 c67,0,112.6-22.8,136.3-59.9C494.7,297,497,251.3,497,207.2z"/>
  </g>
  <line style="stroke: rgb(0, 0, 0); stroke-width: 50px;" x1="18.002" y1="62.137" x2="476.772" y2="461.091"/>
</svg>