<?xml version="1.0" encoding="utf-8"?>
<!-- Generator: Adobe Illustrator 19.0.0, SVG Export Plug-In . SVG Version: 6.00 Build 0)  -->
<svg version="1.1" id="Layer_1" xmlns="http://www.w3.org/2000/svg" xmlns:xlink="http://www.w3.org/1999/xlink" x="0px" y="0px"
	 viewBox="0 0 512 512" style="enable-background:new 0 0 512 512;" xml:space="preserve">
<g id="XMLID_1_">
	<path id="XMLID_3_" d="M394.7,338.1h-52l-83-82.1l82.1-82.1h52V256l115.6-115.6L394.7,25.6v82.1h-66.2c-8.4,0-16.8,3.4-23.5,10.1
		l-92.2,92.2l-92.2-92.2c-5.9-5.9-14.2-10.1-23.5-10.1H0v66.2h85.5l82.1,82.1l-82.1,82.1H0v66.2h98.9c8.4,0,16.8-3.4,23.5-10.1
		l92.2-92.2l92.2,92.2c5.9,5.9,14.2,10.1,23.5,10.1h66.2v82.1L512,370.8L394.7,256V338.1z"/>
</g>
</svg>
